<?xml version="1.0" standalone="no"?><!DOCTYPE svg PUBLIC "-//W3C//DTD SVG 1.1//EN" "http://www.w3.org/Graphics/SVG/1.1/DTD/svg11.dtd"><svg t="1642084392662" class="icon" viewBox="0 0 1024 1024" version="1.1" xmlns="http://www.w3.org/2000/svg" p-id="3000" xmlns:xlink="http://www.w3.org/1999/xlink" width="200" height="200"><defs><style type="text/css"></style></defs><path d="M801.083489 440.160835c0-174.570921-168.133302-316.608891-374.807385-316.608891-206.680223 0-374.813524 142.038994-374.813524 316.608891 0 77.026304 33.057907 151.250796 92.254124 208.022801 7.339152 11.43954 8.308223 73.081459 2.049682 131.902122l-5.047969 47.361681 39.84652-26.071795c45.51052-29.798676 103.803157-61.709457 119.846552-62.833047 40.286542 12.099572 82.623789 18.247596 125.863592 18.247596C632.950188 756.791216 801.083489 614.751199 801.083489 440.160835zM246.681774 478.177684c-23.803125 0.110517-43.196825-19.130709-43.284829-42.931788-0.132006-23.803125 19.107173-43.195801 42.930765-43.328831 23.7581-0.109494 43.196825 19.152199 43.284829 42.931788C289.723056 458.694957 270.482853 478.067166 246.681774 478.177684zM427.399695 478.177684c-23.802102 0.110517-43.173289-19.130709-43.284829-42.931788-0.109494-23.803125 19.130709-43.195801 42.931788-43.328831 23.803125-0.109494 43.196825 19.152199 43.283806 42.931788C470.443024 458.694957 451.223287 478.067166 427.399695 478.177684zM598.922187 478.177684c-23.803125 0.110517-43.174312-19.130709-43.284829-42.931788-0.109494-23.803125 19.129686-43.195801 42.931788-43.328831 23.801079-0.109494 43.195801 19.152199 43.284829 42.931788C641.964492 458.694957 622.745778 478.067166 598.922187 478.177684z" p-id="3001" fill="#8a8a8a"></path><path d="M964.699917 516.855588c0-88.551802-44.2539-173.621293-121.434723-233.413074-9.871835-7.603165-24.022113-5.841032-31.66928 4.03285-2.137687 2.755764-3.349281 5.841032-4.03285 9.035794 25.433252 45.621037 40.066531 96.354512 40.066531 150.041248 0 171.261549-144.707776 314.447668-336.202135 347.044064-2.049682 2.866281-3.65832 6.061043-4.208858 9.785877-1.763157 12.342096 6.78759 23.778566 19.128663 25.563212 63.274092 9.103332 129.301901 4.320399 189.380208-13.729699 16.044418 1.124614 74.358545 33.036417 119.869065 62.833047l39.869033 26.093285-5.069459-47.384194c-6.281053-58.799174-5.333472-120.420627 1.234107-130.933051C931.619498 668.10843 964.677405 593.880869 964.699917 516.855588z" p-id="3002" fill="#8a8a8a"></path></svg>